# xmcd
#
# Track frame offsets: 
#        150
#        18713
#        36676
#        54924
#        72670
#        90894
#        108769
#        127331
#        145331
#        163705
#        181306
#        199381
#
# Disc length: 2895 seconds
#
# Revision: 0
# Processed by: cddbd v1.5.2PL0 Copyright (c) Steve Scherf et al.
# Submitted via: ExactAudioCopy v1.0b1
#
DISCID=b30b4d0c
DTITLE=Jason Dean - Love Songs
DYEAR=1900
DGENRE=Country
TTITLE0=Only A Woman Knows
TTITLE1=My Sweet Lady
TTITLE2=Temptation Eyes
TTITLE3=Key Largo
TTITLE4=Just The Way You Are
TTITLE5=Love Or Something Like It
TTITLE6=The Wonder Of You
TTITLE7=That's The Kind Of Woman I Like
TTITLE8=One Promise Too Late
TTITLE9=You're In My Heart
TTITLE10=How Sweet It Is
TTITLE11=A Love Song
EXTD=
EXTT0=
EXTT1=
EXTT2=
EXTT3=
EXTT4=
EXTT5=
EXTT6=
EXTT7=
EXTT8=
EXTT9=
EXTT10=
EXTT11=
PLAYORDER=
